<svg xmlns="http://www.w3.org/2000/svg" version="1.1" xmlns:xlink="http://www.w3.org/1999/xlink" xmlns:svgjs="http://svgjs.dev/svgjs" width="1440" height="560" preserveAspectRatio="none" viewBox="0 0 1440 560"><g mask="url(&quot;#SvgjsMask1000&quot;)" fill="none"><rect width="1440" height="560" x="0" y="0" fill="#1e3266"></rect><path d="M1560 560L0 560 L0 284.41Q62.37 226.78, 120 289.15Q194.51 291.66, 192 366.18Q224.51 326.69, 264 359.2Q284.6 307.8, 336 328.4Q374.44 246.83, 456 285.27Q524.96 234.23, 576 303.19Q646.65 301.85, 648 372.5Q668.84 321.34, 720 342.17Q754.26 256.44, 840 290.7Q915.18 245.88, 960 321.06Q1028.32 269.38, 1080 337.69Q1155.79 293.48, 1200 369.27Q1225.58 274.85, 1320 300.43Q1397.51 257.94, 1440 335.45Q1521.01 296.45, 1560 377.46z" fill="#182f5d"></path><path d="M1488 560L0 560 L0 388.26Q67.18 335.44, 120 402.61Q194.51 357.12, 240 431.63Q307.22 378.85, 360 446.06Q402.51 368.57, 480 411.09Q525.35 384.43, 552 429.78Q594.34 352.12, 672 394.46Q731.33 381.79, 744 441.12Q766.44 343.56, 864 366Q892.63 322.63, 936 351.27Q985.95 329.22, 1008 379.16Q1073.15 324.31, 1128 389.46Q1201.85 343.31, 1248 417.16Q1300.97 350.13, 1368 403.1Q1448.08 363.18, 1488 443.26z" fill="#25467d"></path><path d="M1560 560L0 560 L0 481.57Q69.05 430.62, 120 499.67Q156.73 416.4, 240 453.13Q294.46 387.59, 360 442.05Q447.04 409.09, 480 496.12Q506.22 402.34, 600 428.55Q675.73 384.28, 720 460.01Q782.55 450.56, 792 513.11Q835.43 436.54, 912 479.97Q932.16 428.13, 984 448.29Q1009.45 401.75, 1056 427.2Q1109.94 409.14, 1128 463.09Q1156.45 419.54, 1200 448Q1281.95 409.95, 1320 491.9Q1373.14 425.04, 1440 478.18Q1492.91 411.09, 1560 464z" fill="#356cb1"></path><path d="M1536 560L0 560 L0 546.99Q50.61 477.6, 120 528.21Q208.34 496.55, 240 584.89Q259.32 532.21, 312 551.53Q332.73 500.25, 384 520.98Q434.84 451.82, 504 502.66Q584.95 463.61, 624 544.56Q650.65 499.21, 696 525.86Q726.46 484.32, 768 514.78Q852.62 479.4, 888 564.02Q933.63 537.65, 960 583.29Q970.08 521.37, 1032 531.44Q1052.5 479.94, 1104 500.43Q1185.54 461.97, 1224 543.5Q1275.6 475.1, 1344 526.7Q1374.41 485.11, 1416 515.52Q1468.05 447.57, 1536 499.62z" fill="white"></path></g><defs><mask id="SvgjsMask1000"><rect width="1440" height="560" fill="#ffffff"></rect></mask></defs></svg>